<svg xmlns="http://www.w3.org/2000/svg" width="1000" height="600" viewBox="0 0 1000 600" font-family="Helvetica, Arial, sans-serif">
  <rect width="1000" height="600" fill="#dee7e4"/><rect x="0" y="0" width="230" height="600" fill="#e7efeb"/>
  <rect x="230" y="0" width="1" height="600" fill="#c4d2cd"/>
  <text x="24" y="40" fill="#52646a" font-size="12" letter-spacing="2" font-family="monospace">VAULT</text>
  <text x="24" y="78" fill="#a15117" font-size="15">Loomings.md</text>
  <text x="24" y="110" fill="#18272b" font-size="15">The Try-Works.md</text>
  <text x="24" y="142" fill="#52646a" font-size="15">Nantucket.md</text>
  <rect x="16" y="62" width="198" height="26" rx="4" fill="#a15117" opacity="0.12"/>
  <text x="280" y="92" fill="#18272b" font-size="44" font-family="Georgia, serif" font-weight="600">The Try-Works</text>
  <text x="280" y="146" fill="#18272b" font-size="17">Look not too long in the face of the fire,</text>
  <text x="280" y="174" fill="#a15117" font-size="17">O man.</text>
  <rect x="280" y="202" width="640" height="64" fill="#a15117" opacity="0.10"/><rect x="280" y="202" width="4" height="64" fill="#a15117"/>
  <text x="304" y="240" fill="#18272b" font-size="16" font-style="italic" font-family="Georgia, serif">Believe not the artificial fire.</text>
  <rect x="280" y="290" width="86" height="26" rx="13" fill="#a15117" opacity="0.14"/>
  <text x="296" y="308" fill="#a15117" font-size="13" font-family="monospace">#cetology</text>
  <text x="384" y="308" fill="#b85f1c" font-size="15" text-decoration="underline">[[Ahab]]</text>
  <rect x="280" y="338" width="640" height="74" rx="6" fill="#e7efeb"/><rect x="280" y="338" width="640" height="74" rx="6" fill="none" stroke="#c4d2cd"/>
  <text x="300" y="372" fill="#52646a" font-size="14" font-family="monospace">midas |&gt; summarise(mean_fev1 = mean(fev1))</text>
  <text x="300" y="396" fill="#243038" font-size="14" font-family="monospace"># 1 row</text>
  <text x="280" y="448" fill="#52646a" font-size="13" font-family="monospace">True Lamp — light</text>
</svg>