<svg xmlns="http://www.w3.org/2000/svg" width="1000" height="600" viewBox="0 0 1000 600" font-family="Helvetica, Arial, sans-serif">
  <rect width="1000" height="600" fill="#12161b"/><rect x="0" y="0" width="230" height="600" fill="#1b2127"/>
  <rect x="230" y="0" width="1" height="600" fill="#2c3640"/>
  <text x="24" y="40" fill="#97a0a4" font-size="12" letter-spacing="2" font-family="monospace">VAULT</text>
  <text x="24" y="78" fill="#c9651d" font-size="15">Loomings.md</text>
  <text x="24" y="110" fill="#f1efe9" font-size="15">The Try-Works.md</text>
  <text x="24" y="142" fill="#97a0a4" font-size="15">Nantucket.md</text>
  <rect x="16" y="62" width="198" height="26" rx="4" fill="#c9651d" opacity="0.12"/>
  <text x="280" y="92" fill="#f1efe9" font-size="44" font-family="Georgia, serif" font-weight="600">The Try-Works</text>
  <text x="280" y="146" fill="#f1efe9" font-size="17">Look not too long in the face of the fire,</text>
  <text x="280" y="174" fill="#c9651d" font-size="17">O man.</text>
  <rect x="280" y="202" width="640" height="64" fill="#c9651d" opacity="0.10"/><rect x="280" y="202" width="4" height="64" fill="#c9651d"/>
  <text x="304" y="240" fill="#f1efe9" font-size="16" font-style="italic" font-family="Georgia, serif">Believe not the artificial fire.</text>
  <rect x="280" y="290" width="86" height="26" rx="13" fill="#c9651d" opacity="0.14"/>
  <text x="296" y="308" fill="#c9651d" font-size="13" font-family="monospace">#cetology</text>
  <text x="384" y="308" fill="#e0832a" font-size="15" text-decoration="underline">[[Ahab]]</text>
  <rect x="280" y="338" width="640" height="74" rx="6" fill="#1b2127"/><rect x="280" y="338" width="640" height="74" rx="6" fill="none" stroke="#2c3640"/>
  <text x="300" y="372" fill="#97a0a4" font-size="14" font-family="monospace">midas |&gt; summarise(mean_fev1 = mean(fev1))</text>
  <text x="300" y="396" fill="#cdd2d3" font-size="14" font-family="monospace"># 1 row</text>
  <text x="280" y="448" fill="#97a0a4" font-size="13" font-family="monospace">Try-Fire — dark</text>
</svg>