<svg xmlns="http://www.w3.org/2000/svg" viewBox="0 0 100 100" width="100" height="100" role="img" aria-label="Try-Works">
  <defs><radialGradient id="gL" cx="0.5" cy="0.92" r="0.5">
    <stop offset="0" stop-color="#c9651d" stop-opacity="0.55"/><stop offset="1" stop-color="#c9651d" stop-opacity="0"/></radialGradient></defs>
  <rect x="2" y="2" width="96" height="96" rx="22" fill="#14242c"/>
  <rect x="2" y="2" width="96" height="96" rx="22" fill="url(#gL)"/>
  <line x1="24" y1="66" x2="76" y2="66" stroke="#8fb6bd" stroke-width="2.4" stroke-linecap="round" opacity="0.85"/>
  <path d="M50 26 C59 38 62 48 57 57 C54.5 61.5 50 64 50 64 C50 64 45.5 61.5 43 57 C38 48 42 40 50 26 Z" fill="#c9651d"/>
  <path d="M50 38 C54.5 45 56 50 53.5 55 C52 57.6 50 59 50 59 C50 59 48 57.6 46.5 55 C44 50 46 46 50 38 Z" fill="#e0832a"/>
</svg>