<svg xmlns="http://www.w3.org/2000/svg" width="760" height="380" viewBox="0 0 760 380">
  <rect width="760" height="380" rx="8" fill="#12161b"/>
  <rect x="0" y="0" width="760" height="34" rx="8" fill="#1b2127"/>
  <circle cx="24" cy="17" r="6" fill="#c05a3a"/><circle cx="44" cy="17" r="6" fill="#cd7a2c"/><circle cx="64" cy="17" r="6" fill="#6f8f6a"/>
  <text x="380" y="22" text-anchor="middle" font-family="monospace" font-size="12" fill="#f1efe9">Try-Works — Ghostty</text>
  <text x="28" y="70" font-family="monospace" font-size="16" fill="#f1efe9"><tspan fill="#6f8f6a">tiago@pequod</tspan>:<tspan fill="#46708a">~/try-works</tspan>$ make generate</text><text x="28" y="100" font-family="monospace" font-size="16" fill="#f1efe9"><tspan fill="#f1efe9">generated css + tailwind colours</tspan></text><text x="28" y="130" font-family="monospace" font-size="16" fill="#f1efe9"><tspan fill="#6f8f6a">tiago@pequod</tspan>:<tspan fill="#46708a">~/try-works</tspan>$ git status</text><text x="28" y="160" font-family="monospace" font-size="16" fill="#f1efe9"><tspan fill="#c05a3a">modified:</tspan>   try-works.json</text><text x="28" y="190" font-family="monospace" font-size="16" fill="#f1efe9"><tspan fill="#cd7a2c">untracked:</tspan>  themes/terminals/Try-Works.ghostty</text><text x="28" y="220" font-family="monospace" font-size="16" fill="#f1efe9"><tspan fill="#5f97a0">branch</tspan> <tspan fill="#8a6f9e">main</tspan> clean</text>
  <text x="28" y="288" font-family="monospace" font-size="11" fill="#97a0a4">ANSI 0–15</text>
  <rect x="28" y="300" width="36" height="36" rx="3" fill="#1b2127"/><rect x="70" y="300" width="36" height="36" rx="3" fill="#c05a3a"/><rect x="112" y="300" width="36" height="36" rx="3" fill="#6f8f6a"/><rect x="154" y="300" width="36" height="36" rx="3" fill="#cd7a2c"/><rect x="196" y="300" width="36" height="36" rx="3" fill="#46708a"/><rect x="238" y="300" width="36" height="36" rx="3" fill="#8a6f9e"/><rect x="280" y="300" width="36" height="36" rx="3" fill="#5f97a0"/><rect x="322" y="300" width="36" height="36" rx="3" fill="#c9ccce"/><rect x="364" y="300" width="36" height="36" rx="3" fill="#3a4754"/><rect x="406" y="300" width="36" height="36" rx="3" fill="#d06a52"/><rect x="448" y="300" width="36" height="36" rx="3" fill="#86a87f"/><rect x="490" y="300" width="36" height="36" rx="3" fill="#e7972f"/><rect x="532" y="300" width="36" height="36" rx="3" fill="#5f93b0"/><rect x="574" y="300" width="36" height="36" rx="3" fill="#a487ba"/><rect x="616" y="300" width="36" height="36" rx="3" fill="#8fb6bd"/><rect x="658" y="300" width="36" height="36" rx="3" fill="#f1efe9"/>
</svg>